<svg width="626" height="623" viewBox="0 0 626 623" fill="none" xmlns="http://www.w3.org/2000/svg">
<circle cx="311.5" cy="311.5" r="213.5" fill="#BBF451"/>
<path d="M276.899 23.6698C279.119 10.0237 290.906 0 304.731 0C317.729 0 329.043 8.88502 332.125 21.5126L363.943 151.887C368.554 170.781 354.246 189 334.798 189H285.275C266.784 189 252.695 172.434 255.665 154.182L276.899 23.6698Z" fill="#BBF451"/>
<path d="M346.101 599.33C343.881 612.976 332.094 623 318.269 623C305.271 623 293.957 614.115 290.875 601.487L259.057 471.113C254.446 452.219 268.754 434 288.202 434L337.725 434C356.216 434 370.305 450.566 367.335 468.818L346.101 599.33Z" fill="#BBF451"/>
<path d="M491.35 83.3425C502.767 75.1872 518.407 76.4816 528.328 86.403C537.641 95.7161 539.421 110.172 532.645 121.466L464.825 234.5C454.783 251.235 431.687 254.079 417.887 240.278L381.992 204.383C368.883 191.275 370.683 169.533 385.768 158.758L491.35 83.3425Z" fill="#BBF451"/>
<path d="M134.446 539.657C123.029 547.813 107.389 546.518 97.4673 536.597C88.1542 527.284 86.3745 512.828 93.1508 501.534L160.971 388.5C171.012 371.765 194.108 368.921 207.909 382.722L243.804 418.617C256.912 431.725 255.113 453.467 240.028 464.242L134.446 539.657Z" fill="#BBF451"/>
<path d="M601.171 283.223C614.952 285.859 624.807 298.072 624.472 312.099C624.158 325.266 614.923 336.529 602.073 339.418L473.464 368.328C454.422 372.609 436.427 357.854 436.893 338.343L438.104 287.594C438.546 269.061 455.524 255.361 473.732 258.844L601.171 283.223Z" fill="#BBF451"/>
<path d="M24.6249 339.777C10.8439 337.141 0.988586 324.928 1.32336 310.901C1.6376 297.734 10.8727 286.471 23.7227 283.582L152.332 254.672C171.374 250.391 189.369 265.146 188.903 284.657L187.692 335.406C187.249 353.939 170.272 367.639 152.064 364.156L24.6249 339.777Z" fill="#BBF451"/>
<path d="M542.667 487.872C550.925 499.215 549.773 514.866 539.942 524.877C530.714 534.275 516.274 536.185 504.92 529.512L391.275 462.721C374.448 452.832 371.396 429.763 385.07 415.838L420.638 379.618C433.627 366.391 455.384 367.993 466.295 382.98L542.667 487.872Z" fill="#BBF451"/>
<path d="M83.129 135.128C74.8703 123.785 76.0226 108.134 85.8535 98.1227C95.0816 88.7254 109.521 86.8146 120.876 93.488L234.521 160.279C251.347 170.168 254.4 193.237 240.725 207.162L205.158 243.382C192.169 256.609 170.412 255.007 159.5 240.02L83.129 135.128Z" fill="#BBF451"/>
<circle cx="311.5" cy="311.5" r="122.5" fill="white"/>
<path d="M176 296.902H161.455V291.575C161.455 290.543 161.625 289.688 161.966 289.011C162.302 288.334 162.759 287.828 163.337 287.491C163.91 287.155 164.556 286.987 165.276 286.987C165.882 286.987 166.393 287.098 166.81 287.321C167.222 287.544 167.553 287.842 167.804 288.216C168.05 288.585 168.23 288.992 168.344 289.438H168.486C168.509 288.955 168.666 288.483 168.955 288.024C169.239 287.56 169.643 287.177 170.169 286.874C170.695 286.571 171.334 286.419 172.087 286.419C172.83 286.419 173.498 286.594 174.089 286.945C174.677 287.29 175.143 287.825 175.489 288.55C175.83 289.274 176 290.2 176 291.327V296.902ZM174.118 294.707V291.54C174.118 290.489 173.914 289.736 173.507 289.281C173.1 288.827 172.591 288.599 171.98 288.599C171.521 288.599 171.099 288.715 170.716 288.947C170.332 289.179 170.027 289.511 169.8 289.942C169.572 290.368 169.459 290.875 169.459 291.462V294.707H174.118ZM167.747 294.707V291.767C167.747 291.275 167.652 290.832 167.463 290.439C167.274 290.041 167.009 289.726 166.668 289.494C166.322 289.258 165.915 289.139 165.446 289.139C164.845 289.139 164.34 289.35 163.933 289.771C163.526 290.193 163.322 290.839 163.322 291.71V294.707H167.747Z" fill="black"/>
<path d="M175.239 248.268C176.74 248.67 177.956 249.29 178.888 250.128C179.816 250.965 180.442 251.939 180.767 253.051C181.088 254.156 181.086 255.315 180.762 256.527C180.436 257.744 179.856 258.753 179.024 259.554C178.188 260.35 177.157 260.878 175.931 261.137C174.704 261.397 173.343 261.326 171.848 260.926C170.348 260.524 169.134 259.904 168.206 259.067C167.274 258.229 166.647 257.257 166.326 256.152C166.001 255.04 166.002 253.876 166.328 252.66C166.652 251.448 167.233 250.444 168.068 249.648C168.901 248.847 169.93 248.316 171.156 248.057C172.378 247.796 173.739 247.866 175.239 248.268ZM174.677 250.368C173.534 250.061 172.521 249.988 171.64 250.149C170.755 250.304 170.026 250.648 169.452 251.181C168.874 251.707 168.478 252.373 168.262 253.178C168.045 253.988 168.055 254.765 168.292 255.51C168.524 256.253 168.984 256.915 169.671 257.497C170.355 258.072 171.269 258.513 172.412 258.819C173.556 259.126 174.57 259.201 175.454 259.046C176.336 258.885 177.065 258.542 177.642 258.015C178.215 257.487 178.61 256.818 178.827 256.009C179.043 255.204 179.034 254.43 178.802 253.686C178.567 252.937 178.107 252.274 177.423 251.699C176.736 251.118 175.82 250.674 174.677 250.368Z" fill="black"/>
<path d="M191.106 214.216C192.451 214.992 193.465 215.906 194.149 216.957C194.828 218.005 195.181 219.108 195.207 220.266C195.231 221.417 194.929 222.536 194.302 223.623C193.672 224.713 192.852 225.538 191.84 226.097C190.827 226.649 189.695 226.892 188.443 226.825C187.191 226.758 185.895 226.338 184.554 225.564C183.209 224.787 182.197 223.875 181.517 222.826C180.833 221.776 180.48 220.675 180.455 219.524C180.429 218.366 180.731 217.242 181.361 216.151C181.988 215.064 182.809 214.245 183.822 213.693C184.833 213.134 185.965 212.888 187.217 212.955C188.464 213.019 189.761 213.439 191.106 214.216ZM190.019 216.098C188.994 215.506 188.035 215.174 187.142 215.101C186.247 215.022 185.454 215.165 184.761 215.531C184.067 215.89 183.512 216.431 183.095 217.152C182.676 217.878 182.485 218.631 182.521 219.412C182.552 220.19 182.825 220.949 183.339 221.688C183.85 222.421 184.619 223.084 185.644 223.676C186.669 224.267 187.629 224.603 188.524 224.682C189.417 224.755 190.21 224.611 190.904 224.252C191.594 223.891 192.149 223.347 192.568 222.621C192.984 221.899 193.177 221.149 193.145 220.371C193.111 219.586 192.839 218.828 192.327 218.095C191.813 217.355 191.044 216.69 190.019 216.098Z" fill="black"/>
<path d="M212.16 198.8L201.875 188.515L203.427 186.963L208.338 191.874L208.464 191.749L207.866 182.523L209.82 180.57L210.302 189.348L220.12 190.84L218.252 192.708L210.332 191.437L210.513 194.049L213.712 197.248L212.16 198.8Z" fill="black"/>
<path d="M272.657 160.861L270.407 161.464L271.698 146.059L274.147 145.403L282.968 158.098L280.718 158.701L273.665 148.267L273.555 148.297L272.657 160.861ZM271.56 155.258L278.86 153.302L279.337 155.085L272.038 157.041L271.56 155.258Z" fill="black"/>
<path d="M353.533 150.077C353.633 149.408 353.466 148.824 353.031 148.325C352.598 147.821 351.978 147.462 351.173 147.246C350.597 147.092 350.074 147.05 349.604 147.12C349.136 147.185 348.743 147.345 348.425 147.598C348.113 147.848 347.903 148.171 347.797 148.569C347.707 148.903 347.708 149.212 347.798 149.496C347.894 149.781 348.047 150.041 348.259 150.274C348.477 150.504 348.72 150.714 348.988 150.903C349.257 151.088 349.519 151.251 349.775 151.393L351.052 152.118C351.471 152.348 351.89 152.619 352.311 152.933C352.732 153.247 353.103 153.611 353.423 154.025C353.743 154.439 353.966 154.906 354.092 155.425C354.222 155.945 354.203 156.521 354.034 157.152C353.82 157.948 353.425 158.599 352.848 159.106C352.276 159.615 351.553 159.943 350.68 160.092C349.811 160.241 348.828 160.169 347.731 159.875C346.679 159.593 345.813 159.182 345.134 158.642C344.456 158.103 343.981 157.468 343.711 156.739C343.442 156.005 343.398 155.209 343.579 154.351L345.705 154.92C345.61 155.439 345.662 155.906 345.859 156.322C346.062 156.734 346.368 157.083 346.777 157.369C347.192 157.652 347.671 157.866 348.215 158.012C348.814 158.173 349.372 158.222 349.889 158.159C350.411 158.093 350.853 157.927 351.214 157.661C351.575 157.39 351.817 157.026 351.94 156.569C352.051 156.153 352.024 155.78 351.857 155.451C351.695 155.123 351.436 154.819 351.08 154.537C350.729 154.257 350.319 153.983 349.852 153.715L348.313 152.818C347.27 152.21 346.499 151.52 345.999 150.749C345.505 149.98 345.389 149.105 345.651 148.127C345.868 147.317 346.277 146.669 346.877 146.183C347.478 145.697 348.198 145.388 349.038 145.255C349.879 145.117 350.77 145.175 351.712 145.427C352.663 145.682 353.458 146.074 354.096 146.603C354.738 147.133 355.191 147.747 355.455 148.445C355.72 149.138 355.761 149.865 355.577 150.624L353.533 150.077Z" fill="black"/>
<path d="M376.505 170.837L383.777 158.24L391.675 162.799L390.73 164.436L384.733 160.973L382.518 164.811L388.102 168.036L387.161 169.666L381.577 166.441L379.35 170.298L385.421 173.803L384.476 175.439L376.505 170.837Z" fill="black"/>
<path d="M405.716 191.675L404.068 190.028L418.055 183.444L419.848 185.237L413.264 199.224L411.616 197.576L417.126 186.252L417.045 186.171L405.716 191.675ZM410.019 187.924L415.363 193.267L414.057 194.573L408.714 189.23L410.019 187.924Z" fill="black"/>
<path d="M438.613 211.622L440.25 210.678L445.878 220.427L444.242 221.371L441.973 217.441L431.012 223.769L429.918 221.875L440.879 215.547L438.613 211.622Z" fill="black"/>
<path d="M445.676 256.784C445.676 255.852 446.006 255.051 446.665 254.381C447.335 253.71 448.142 253.375 449.085 253.375C450.017 253.375 450.813 253.71 451.472 254.381C452.142 255.051 452.477 255.852 452.477 256.784C452.477 257.716 452.142 258.517 451.472 259.188C450.813 259.858 450.017 260.193 449.085 260.193C448.46 260.193 447.886 260.034 447.364 259.716C446.852 259.409 446.443 259 446.136 258.489C445.83 257.977 445.676 257.409 445.676 256.784Z" fill="black"/>
<path d="M449.506 345.8L464.042 346.315L463.853 351.639C463.816 352.67 463.616 353.518 463.251 354.183C462.891 354.848 462.417 355.338 461.827 355.653C461.243 355.969 460.591 356.114 459.872 356.088C459.266 356.067 458.759 355.938 458.35 355.7C457.947 355.463 457.626 355.154 457.389 354.771C457.156 354.393 456.99 353.98 456.892 353.531L456.75 353.526C456.71 354.008 456.537 354.473 456.232 354.922C455.932 355.375 455.513 355.744 454.977 356.028C454.441 356.313 453.797 356.441 453.045 356.415C452.302 356.388 451.641 356.19 451.062 355.819C450.487 355.452 450.04 354.901 449.721 354.165C449.406 353.429 449.268 352.498 449.308 351.371L449.506 345.8ZM451.309 348.06L451.196 351.225C451.159 352.276 451.336 353.035 451.727 353.504C452.118 353.973 452.618 354.218 453.229 354.239C453.688 354.256 454.113 354.155 454.504 353.937C454.896 353.718 455.213 353.398 455.455 352.975C455.697 352.558 455.829 352.055 455.85 351.468L455.965 348.225L451.309 348.06ZM457.675 348.285L457.571 351.224C457.554 351.716 457.633 352.162 457.808 352.561C457.983 352.965 458.237 353.29 458.569 353.534C458.907 353.782 459.309 353.915 459.778 353.932C460.379 353.953 460.89 353.76 461.312 353.354C461.734 352.947 461.96 352.308 461.991 351.438L462.097 348.442L457.675 348.285Z" fill="black"/>
<path d="M448.542 394.43C447.057 393.975 445.863 393.312 444.961 392.442C444.064 391.572 443.472 390.577 443.187 389.454C442.905 388.338 442.948 387.18 443.316 385.98C443.685 384.776 444.299 383.788 445.159 383.017C446.023 382.251 447.072 381.76 448.307 381.544C449.542 381.328 450.899 381.447 452.38 381.901C453.865 382.356 455.056 383.018 455.953 383.887C456.855 384.757 457.447 385.751 457.729 386.867C458.014 387.989 457.972 389.153 457.603 390.357C457.236 391.557 456.62 392.539 455.757 393.305C454.897 394.076 453.849 394.57 452.614 394.786C451.384 395.003 450.026 394.885 448.542 394.43ZM449.178 392.352C450.31 392.698 451.319 392.807 452.206 392.677C453.095 392.554 453.836 392.236 454.429 391.724C455.024 391.218 455.444 390.567 455.688 389.77C455.934 388.969 455.952 388.192 455.741 387.439C455.536 386.688 455.1 386.01 454.433 385.405C453.77 384.805 452.873 384.332 451.741 383.985C450.609 383.639 449.598 383.527 448.709 383.651C447.822 383.78 447.081 384.098 446.486 384.604C445.894 385.111 445.476 385.765 445.231 386.567C444.987 387.364 444.967 388.138 445.173 388.889C445.382 389.646 445.818 390.324 446.481 390.924C447.147 391.529 448.046 392.005 449.178 392.352Z" fill="black"/>
<path d="M431.478 427.898C430.162 427.075 429.18 426.126 428.534 425.051C427.892 423.979 427.579 422.865 427.594 421.707C427.611 420.555 427.952 419.448 428.617 418.384C429.285 417.316 430.134 416.521 431.165 415.999C432.197 415.483 433.338 415.28 434.586 415.391C435.835 415.502 437.116 415.968 438.428 416.79C439.745 417.613 440.724 418.561 441.366 419.633C442.012 420.707 442.327 421.82 442.31 422.971C442.295 424.129 441.953 425.242 441.285 426.31C440.62 427.374 439.771 428.163 438.739 428.679C437.708 429.202 436.569 429.408 435.32 429.297C434.075 429.188 432.795 428.722 431.478 427.898ZM432.631 426.056C433.634 426.684 434.581 427.05 435.471 427.154C436.362 427.265 437.16 427.15 437.865 426.809C438.571 426.474 439.145 425.954 439.587 425.248C440.032 424.537 440.25 423.791 440.242 423.01C440.238 422.231 439.992 421.463 439.505 420.706C439.02 419.955 438.275 419.266 437.272 418.638C436.268 418.01 435.321 417.641 434.429 417.53C433.54 417.426 432.742 417.541 432.035 417.875C431.333 418.212 430.76 418.736 430.315 419.446C429.873 420.153 429.654 420.896 429.658 421.675C429.664 422.46 429.91 423.228 430.395 423.979C430.882 424.736 431.627 425.428 432.631 426.056Z" fill="black"/>
<path d="M409.89 442.558L419.804 453.202L418.199 454.697L413.464 449.615L413.334 449.736L413.604 458.977L411.583 460.86L411.412 452.07L401.653 450.231L403.586 448.43L411.456 449.981L411.368 447.365L408.284 444.054L409.89 442.558Z" fill="black"/>
<path d="M348.086 478.329L350.356 477.806L348.52 493.155L346.049 493.724L337.684 480.724L339.954 480.202L346.633 490.879L346.743 490.853L348.086 478.329ZM348.984 483.967L341.62 485.663L341.205 483.864L348.57 482.168L348.984 483.967Z" fill="black"/>
<path d="M266.88 486.239C266.755 486.904 266.901 487.493 267.318 488.007C267.734 488.526 268.34 488.907 269.137 489.151C269.707 489.326 270.228 489.387 270.7 489.333C271.171 489.284 271.57 489.139 271.896 488.897C272.217 488.659 272.437 488.343 272.558 487.949C272.659 487.618 272.67 487.309 272.589 487.022C272.504 486.734 272.36 486.469 272.157 486.229C271.947 485.991 271.712 485.773 271.451 485.574C271.188 485.38 270.932 485.207 270.681 485.056L269.431 484.287C269.021 484.042 268.611 483.756 268.201 483.427C267.792 483.099 267.434 482.722 267.129 482.297C266.823 481.871 266.617 481.397 266.51 480.874C266.398 480.35 266.438 479.775 266.629 479.15C266.871 478.362 267.289 477.725 267.883 477.239C268.474 476.751 269.208 476.449 270.085 476.331C270.959 476.213 271.939 476.32 273.025 476.653C274.066 476.972 274.917 477.413 275.576 477.976C276.235 478.54 276.687 479.191 276.931 479.929C277.174 480.672 277.19 481.469 276.979 482.32L274.874 481.676C274.987 481.161 274.952 480.692 274.769 480.27C274.581 479.85 274.288 479.491 273.889 479.19C273.485 478.893 273.014 478.662 272.475 478.497C271.882 478.315 271.326 478.247 270.807 478.291C270.283 478.338 269.836 478.488 269.466 478.741C269.095 478.999 268.84 479.354 268.701 479.807C268.575 480.219 268.589 480.592 268.744 480.927C268.895 481.26 269.143 481.574 269.489 481.868C269.83 482.161 270.229 482.449 270.687 482.733L272.193 483.685C273.214 484.329 273.96 485.045 274.432 485.834C274.899 486.621 274.984 487.498 274.687 488.467C274.442 489.268 274.01 489.901 273.392 490.366C272.775 490.83 272.044 491.114 271.2 491.217C270.355 491.325 269.466 491.236 268.534 490.95C267.592 490.661 266.812 490.242 266.193 489.691C265.57 489.138 265.139 488.509 264.9 487.802C264.66 487.099 264.645 486.371 264.856 485.619L266.88 486.239Z" fill="black"/>
<path d="M244.658 464.678L236.943 477.009L229.212 472.172L230.214 470.57L236.084 474.243L238.435 470.486L232.968 467.066L233.966 465.47L239.433 468.89L241.795 465.115L235.852 461.397L236.854 459.796L244.658 464.678Z" fill="black"/>
<path d="M216.204 442.816L217.792 444.521L203.581 450.605L201.853 448.75L208.928 435.005L210.516 436.71L204.609 447.832L204.686 447.915L216.204 442.816ZM211.77 446.413L206.619 440.883L207.97 439.625L213.121 445.154L211.77 446.413Z" fill="black"/>
<path d="M184.034 421.716L182.365 422.602L177.086 412.659L178.754 411.773L180.883 415.782L192.061 409.846L193.087 411.778L181.909 417.714L184.034 421.716Z" fill="black"/>
<path d="M178.577 376.332C178.544 377.263 178.186 378.052 177.504 378.699C176.81 379.345 175.992 379.651 175.049 379.618C174.118 379.585 173.335 379.222 172.7 378.528C172.053 377.835 171.747 377.022 171.78 376.091C171.813 375.16 172.176 374.371 172.87 373.725C173.553 373.078 174.359 372.771 175.291 372.804C175.915 372.826 176.483 373.006 176.994 373.342C177.494 373.667 177.889 374.09 178.177 374.612C178.466 375.134 178.599 375.707 178.577 376.332Z" fill="black"/>
</svg>
