<svg width="388" height="100" viewBox="0 0 388 100" fill="none" xmlns="http://www.w3.org/2000/svg">
<path d="M0 0H322L388 66L312 100H0V0Z" fill="#BBF451"/>
<path d="M68.0341 46.8182H60.0227C59.9659 46.1553 59.8144 45.554 59.5682 45.0142C59.3314 44.4744 59 44.0104 58.5739 43.6222C58.1572 43.2244 57.6506 42.9214 57.054 42.7131C56.4574 42.4953 55.7803 42.3864 55.0227 42.3864C53.697 42.3864 52.5748 42.7083 51.6562 43.3523C50.7472 43.9962 50.0559 44.9195 49.5824 46.1222C49.1184 47.3248 48.8864 48.7689 48.8864 50.4545C48.8864 52.2348 49.1231 53.7263 49.5966 54.929C50.0795 56.1222 50.7756 57.0218 51.6847 57.6278C52.5938 58.2244 53.6875 58.5227 54.9659 58.5227C55.6951 58.5227 56.3485 58.4328 56.9261 58.2528C57.5038 58.0634 58.0057 57.7936 58.4318 57.4432C58.858 57.0928 59.2036 56.6714 59.4688 56.179C59.7434 55.6771 59.928 55.1136 60.0227 54.4886L68.0341 54.5455C67.9394 55.7765 67.5938 57.0312 66.9972 58.3097C66.4006 59.5786 65.553 60.7528 64.4545 61.8324C63.3655 62.9025 62.0161 63.7642 60.4062 64.4176C58.7964 65.071 56.9261 65.3977 54.7955 65.3977C52.125 65.3977 49.7292 64.8248 47.608 63.679C45.4962 62.5331 43.8248 60.8475 42.5938 58.6222C41.3722 56.3968 40.7614 53.6742 40.7614 50.4545C40.7614 47.2159 41.3864 44.4886 42.6364 42.2727C43.8864 40.0473 45.572 38.3665 47.6932 37.2301C49.8144 36.0843 52.1818 35.5114 54.7955 35.5114C56.6326 35.5114 58.3229 35.7623 59.8665 36.2642C61.41 36.7661 62.7642 37.5 63.929 38.4659C65.0938 39.4223 66.0313 40.6013 66.7415 42.0028C67.4517 43.4044 67.8826 45.0095 68.0341 46.8182ZM99.799 50.4545C99.799 53.6932 99.1693 56.4252 97.9098 58.6506C96.6503 60.8665 94.9505 62.5473 92.8104 63.6932C90.6702 64.8295 88.2839 65.3977 85.6513 65.3977C82.9998 65.3977 80.6039 64.8248 78.4638 63.679C76.3331 62.5237 74.638 60.8381 73.3786 58.6222C72.1286 56.3968 71.5036 53.6742 71.5036 50.4545C71.5036 47.2159 72.1286 44.4886 73.3786 42.2727C74.638 40.0473 76.3331 38.3665 78.4638 37.2301C80.6039 36.0843 82.9998 35.5114 85.6513 35.5114C88.2839 35.5114 90.6702 36.0843 92.8104 37.2301C94.9505 38.3665 96.6503 40.0473 97.9098 42.2727C99.1693 44.4886 99.799 47.2159 99.799 50.4545ZM91.674 50.4545C91.674 48.7121 91.442 47.2443 90.978 46.0511C90.5234 44.8485 89.8464 43.9394 88.9467 43.3239C88.0566 42.6989 86.9581 42.3864 85.6513 42.3864C84.3445 42.3864 83.2412 42.6989 82.3416 43.3239C81.4515 43.9394 80.7744 44.8485 80.3104 46.0511C79.8558 47.2443 79.6286 48.7121 79.6286 50.4545C79.6286 52.197 79.8558 53.6695 80.3104 54.8722C80.7744 56.0653 81.4515 56.9744 82.3416 57.5994C83.2412 58.215 84.3445 58.5227 85.6513 58.5227C86.9581 58.5227 88.0566 58.215 88.9467 57.5994C89.8464 56.9744 90.5234 56.0653 90.978 54.8722C91.442 53.6695 91.674 52.197 91.674 50.4545ZM103.453 65V35.9091H111.351V58.6364H123.112V65H103.453ZM126.305 65V35.9091H134.202V58.6364H145.964V65H126.305ZM156.713 65H148.19L157.793 35.9091H168.588L178.19 65H169.668L163.304 43.9205H163.077L156.713 65ZM155.122 53.5227H171.145V59.4318H155.122V53.5227ZM180.992 65V35.9091H193.606C195.822 35.9091 197.683 36.2074 199.188 36.804C200.703 37.4006 201.844 38.2434 202.612 39.3324C203.388 40.4214 203.776 41.7045 203.776 43.1818C203.776 44.2519 203.54 45.2273 203.066 46.108C202.602 46.9886 201.949 47.7273 201.106 48.3239C200.263 48.911 199.278 49.3182 198.151 49.5455V49.8295C199.401 49.8769 200.538 50.1941 201.56 50.7812C202.583 51.3589 203.397 52.1591 204.004 53.1818C204.61 54.1951 204.913 55.3883 204.913 56.7614C204.913 58.3523 204.496 59.768 203.663 61.0085C202.839 62.2491 201.665 63.2244 200.14 63.9347C198.615 64.6449 196.797 65 194.685 65H180.992ZM188.89 58.6932H192.583C193.909 58.6932 194.903 58.447 195.566 57.9545C196.229 57.4527 196.56 56.714 196.56 55.7386C196.56 55.0568 196.404 54.4792 196.092 54.0057C195.779 53.5322 195.334 53.1723 194.756 52.9261C194.188 52.6799 193.502 52.5568 192.697 52.5568H188.89V58.6932ZM188.89 47.6705H192.129C192.82 47.6705 193.431 47.5616 193.961 47.3438C194.491 47.1259 194.903 46.8134 195.197 46.4062C195.5 45.9896 195.651 45.483 195.651 44.8864C195.651 43.9867 195.329 43.3002 194.685 42.8267C194.041 42.3438 193.227 42.1023 192.242 42.1023H188.89V47.6705ZM212.086 65.4545C210.987 65.4545 210.045 65.071 209.259 64.304C208.483 63.5275 208.099 62.5852 208.109 61.4773C208.099 60.3977 208.483 59.4744 209.259 58.7074C210.045 57.9403 210.987 57.5568 212.086 57.5568C213.128 57.5568 214.046 57.9403 214.842 58.7074C215.647 59.4744 216.054 60.3977 216.063 61.4773C216.054 62.2159 215.86 62.8883 215.481 63.4943C215.112 64.0909 214.629 64.5691 214.032 64.929C213.435 65.2794 212.787 65.4545 212.086 65.4545ZM228.109 35.9091V65H220.211V35.9091H228.109ZM260.033 50.4545C260.033 53.6932 259.404 56.4252 258.144 58.6506C256.885 60.8665 255.185 62.5473 253.045 63.6932C250.905 64.8295 248.518 65.3977 245.886 65.3977C243.234 65.3977 240.838 64.8248 238.698 63.679C236.567 62.5237 234.872 60.8381 233.613 58.6222C232.363 56.3968 231.738 53.6742 231.738 50.4545C231.738 47.2159 232.363 44.4886 233.613 42.2727C234.872 40.0473 236.567 38.3665 238.698 37.2301C240.838 36.0843 243.234 35.5114 245.886 35.5114C248.518 35.5114 250.905 36.0843 253.045 37.2301C255.185 38.3665 256.885 40.0473 258.144 42.2727C259.404 44.4886 260.033 47.2159 260.033 50.4545ZM251.908 50.4545C251.908 48.7121 251.676 47.2443 251.212 46.0511C250.758 44.8485 250.081 43.9394 249.181 43.3239C248.291 42.6989 247.192 42.3864 245.886 42.3864C244.579 42.3864 243.476 42.6989 242.576 43.3239C241.686 43.9394 241.009 44.8485 240.545 46.0511C240.09 47.2443 239.863 48.7121 239.863 50.4545C239.863 52.197 240.09 53.6695 240.545 54.8722C241.009 56.0653 241.686 56.9744 242.576 57.5994C243.476 58.215 244.579 58.5227 245.886 58.5227C247.192 58.5227 248.291 58.215 249.181 57.5994C250.081 56.9744 250.758 56.0653 251.212 54.8722C251.676 53.6695 251.908 52.197 251.908 50.4545Z" fill="#0F172B"/>
</svg>
