<svg width="585" height="532" viewBox="0 0 585 532" fill="none" xmlns="http://www.w3.org/2000/svg">
<rect x="168.866" y="530.633" width="529" height="252" transform="rotate(-90.3738 168.866 530.633)" fill="#1D293D"/>
<rect x="1.27856" y="226.055" width="529" height="252" transform="rotate(-19.7071 1.27856 226.055)" fill="#BBF451"/>
<rect x="349.607" y="101.287" width="16" height="22" transform="rotate(-19.7071 349.607 101.287)" fill="#0F172B"/>
<rect x="364.782" y="143.651" width="16" height="22" transform="rotate(-19.7071 364.782 143.651)" fill="#0F172B"/>
<rect x="384.677" y="199.195" width="16" height="22" transform="rotate(-19.7071 384.677 199.195)" fill="#0F172B"/>
<rect x="404.573" y="254.74" width="16" height="22" transform="rotate(-19.7071 404.573 254.74)" fill="#0F172B"/>
<rect x="427.166" y="317.815" width="16" height="22" transform="rotate(-19.7071 427.166 317.815)" fill="#0F172B"/>
<path d="M0 225.451L48.9543 207.916L56.373 228.627C61.9601 244.225 53.8445 261.399 38.2464 266.986L17.535 274.405L0 225.451Z" fill="#0F172B"/>
<path d="M450.003 64.2638L498.957 46.7288L516.492 95.6831L495.781 103.102C480.183 108.689 463.009 100.573 457.422 84.9752L450.003 64.2638Z" fill="#0F172B"/>
<path d="M527.899 281.734C522.312 266.136 530.427 248.962 546.025 243.375L566.737 235.956L584.272 284.91L535.317 302.445L527.899 281.734Z" fill="#0F172B"/>
<path d="M68.1166 415.619L88.828 408.201C104.426 402.614 121.6 410.729 127.187 426.327L134.606 447.039L85.6516 464.574L68.1166 415.619Z" fill="#0F172B"/>
<path d="M93.5368 309.466L90.1034 299.881L128.189 286.239L131.622 295.825L118.442 300.546L130.704 334.779L118.979 338.979L106.717 304.745L93.5368 309.466ZM144.562 280.374L160.258 324.194L148.361 328.455L132.666 284.636L144.562 280.374ZM196.995 280.134L184.928 284.456C184.484 283.488 183.932 282.664 183.27 281.984C182.622 281.299 181.872 280.779 181.021 280.424C180.179 280.05 179.252 279.867 178.241 279.875C177.225 279.868 176.146 280.07 175.005 280.478C173.008 281.194 171.491 282.284 170.455 283.75C169.433 285.21 168.89 286.974 168.826 289.041C168.776 291.103 169.206 293.403 170.115 295.942C171.076 298.624 172.237 300.743 173.599 302.299C174.97 303.835 176.504 304.815 178.2 305.237C179.892 305.646 181.7 305.505 183.626 304.815C184.724 304.422 185.66 303.934 186.433 303.351C187.201 302.754 187.811 302.077 188.264 301.319C188.717 300.561 189.01 299.74 189.144 298.855C189.287 297.951 189.261 297.003 189.066 296.01L201.164 291.773C201.686 293.679 201.842 295.755 201.633 298.003C201.419 300.236 200.776 302.462 199.704 304.681C198.641 306.88 197.073 308.906 195.001 310.759C192.928 312.612 190.288 314.113 187.078 315.263C183.056 316.704 179.138 317.133 175.324 316.552C171.525 315.965 168.098 314.328 165.043 311.64C162.003 308.947 159.614 305.176 157.876 300.326C156.129 295.448 155.599 291.002 156.286 286.99C156.968 282.964 158.601 279.522 161.183 276.666C163.76 273.796 167.016 271.655 170.953 270.245C173.721 269.254 176.402 268.72 178.998 268.643C181.594 268.566 184.03 268.941 186.305 269.768C188.576 270.58 190.624 271.85 192.45 273.578C194.276 275.306 195.791 277.491 196.995 280.134ZM212.202 305.588L196.506 261.768L208.403 257.507L214.748 275.223L215.347 275.009L222.182 252.572L236.046 247.606L228.23 272.422L252.084 291.302L237.877 296.391L222.149 283.484L220.052 290.029L224.098 301.327L212.202 305.588ZM255.272 290.16L239.577 246.341L271.157 235.029L274.591 244.615L254.906 251.665L257.604 259.197L275.662 252.728L279.096 262.314L261.037 268.782L263.735 276.314L283.334 269.294L286.767 278.879L255.272 290.16ZM279.293 242.93L275.859 233.345L313.944 219.703L317.378 229.289L304.198 234.01L316.46 268.243L304.735 272.443L292.473 238.209L279.293 242.93Z" fill="#0F172B"/>
<path d="M167.873 531.639L167.534 479.64L189.533 479.497C206.101 479.389 219.62 492.732 219.728 509.301L219.872 531.3L167.873 531.639Z" fill="#0F172B"/>
<path d="M164.754 53.6495L164.415 1.65064L216.414 1.31139L216.558 23.3109C216.666 39.8791 203.322 53.3979 186.754 53.506L164.754 53.6495Z" fill="#0F172B"/>
<path d="M395.75 52.1425C379.181 52.2506 365.663 38.9071 365.555 22.3389L365.411 0.339363L417.41 0.000114448L417.749 51.999L395.75 52.1425Z" fill="#0F172B"/>
<path d="M369.869 530.321L369.725 508.322C369.617 491.754 382.961 478.235 399.529 478.127L421.528 477.983L421.868 529.982L369.869 530.321Z" fill="#0F172B"/>
<path d="M274.059 103.322L263.878 103.389L263.614 62.9352L273.796 62.8687L273.887 76.8684L310.25 76.6312L310.331 89.0855L273.968 89.3227L274.059 103.322Z" fill="#0F172B"/>
</svg>
